HIERARCHY
ROOT Hips
{
	OFFSET 0.00000 0.00000 0.00000
	CHANNELS 6 Xposition Yposition Zposition Yrotation Zrotation Xrotation 
	JOINT Lumbar
	{
		OFFSET 0 0 0
		CHANNELS 3 Zrotation Xrotation Yrotation
		JOINT Neck
		{
			OFFSET 0.00 0.2701 0.00
			CHANNELS 3 Zrotation Xrotation Yrotation
			End Site
			{
				OFFSET 0.00 0.1379 0.00
			}
		}
		JOINT RightShoulder
		{
			OFFSET 0.0119 0.2289 0.1181
			CHANNELS 3 Zrotation Xrotation Yrotation
			JOINT RightElbow
			{
				OFFSET 0.00 -0.1475 0.00
				CHANNELS 2 Zrotation Yrotation
				JOINT RightWrist
				{
					OFFSET 0.00 -0.1605 0.00
					CHANNELS 2 Zrotation Xrotation
					End Site
					{
						OFFSET 0.0040 -0.1068 0.0006
					}
				}
			}
		}
		JOINT LeftShoulder
		{
			OFFSET 0.0119 0.2289 -0.1181
			CHANNELS 3 Zrotation Xrotation Yrotation
			JOINT LeftElbow
			{
				OFFSET 0.00 -0.1475 0.00
				CHANNELS 2 Zrotation Yrotation
				JOINT LeftWrist
				{
					OFFSET 0.00 -0.1605 0.00
					CHANNELS 2 Zrotation Xrotation
					End Site
					{
						OFFSET 0.0040 -0.1068 -0.0006
					}
				}
			}
		}
	}
	JOINT RightHip
	{
		OFFSET 0.0316 -0.0424 0.0458
		CHANNELS 3 Zrotation Xrotation Yrotation
		JOINT RightKnee
		{
			OFFSET 0.00 -0.2438 0.00
			CHANNELS 1 Zrotation
			JOINT RightAnkle
			{
				OFFSET 0.00 -0.2449 0.00
				CHANNELS 3 Zrotation Xrotation Yrotation
				End Site
				{
					OFFSET 0.1237 -0.0542 0.0051
				}
			}
		}
	}
	JOINT LeftHip
	{
		OFFSET 0.0316 -0.0424 -0.0458
		CHANNELS 3 Zrotation Xrotation Yrotation
		JOINT LeftKnee
		{
			OFFSET 0.00 -0.2438 0.00
			CHANNELS 1 Zrotation
			JOINT LeftAnkle
			{
				OFFSET 0.00 -0.2449 0.00
				CHANNELS 3 Zrotation Xrotation Yrotation
				End Site
				{
					OFFSET 0.1237 -0.0542 -0.0051
				}
			}
		}
	}
}
MOTION
Frames: 16
Frame Time: 0.02
0.00387 -0.00036 -0.00077 -174.88765 -39.16362 -1.77766 45.1276 2.8749 -7.42361 9.50237 3.76168 -0.12734 11.97196 -18.21033 64.46526 67.04513 129.81291 27.24153 2.09231 8.12103 16.57416 -36.95075 82.44093 -75.31975 -1.28401 2.11168 43.19862 0.00684 -0.75477 -20.76018 -7.16102 -4.48869 -3.04846 46.96428 4.49336 6.69024 -25.16585 -6.88946 2.98169 2.20544
0.0032 -0.0005 -0.00092 -174.78758 -39.5815 -1.78577 45.56464 2.78039 -7.07341 9.20951 3.7059 -0.12872 10.33224 -17.12934 54.51928 62.44393 121.21903 22.90764 2.45079 6.02017 16.35593 -34.86047 78.6562 -77.81623 -0.31034 1.67982 43.54888 0.00373 -1.2681 -20.63366 -7.11884 -4.48454 -3.04204 47.38637 4.44906 6.16606 -25.14046 -6.89633 3.04538 2.23984
0.00253 -0.00064 -0.00107 -174.68765 -39.99791 -1.79381 46.00052 2.686 -6.7245 8.91582 3.65002 -0.13016 8.69123 -16.05381 44.61036 57.8584 112.66331 18.59193 2.80698 3.9201 16.13901 -32.77327 74.88332 -80.30437 0.66028 1.24948 43.89771 0.00063 -1.7801 -20.50753 -7.07678 -4.4804 -3.03564 47.80683 4.40513 5.6444 -25.11516 -6.90315 3.10875 2.27406
0.00186 -0.00077 -0.00123 -174.58786 -40.41448 -1.80189 46.43626 2.59175 -6.37541 8.62357 3.59438 -0.13154 7.0555 -14.9766 34.69638 53.27162 104.098 14.27227 3.1641 1.82478 15.92162 -30.68895 71.1103 -82.79302 1.63092 0.81898 44.24683 -0.00247 -2.29189 -20.3814 -7.03472 -4.47627 -3.02925 48.22757 4.36101 5.122 -25.08985 -6.91 3.17223 2.30834
0.0012 -0.00091 -0.00138 -174.48798 -40.83258 -1.81005 46.87308 2.49744 -6.02496 8.33284 3.53891 -0.13282 5.42353 -13.89285 24.74202 48.66862 95.48962 9.93235 3.52415 -0.2692 15.70253 -28.60263 67.32533 -85.29036 2.6047 0.38691 44.59752 -0.00559 -2.80493 -20.25488 -6.99256 -4.47214 -3.02285 48.65006 4.31642 4.59669 -25.06447 -6.9169 3.23607 2.34282
0.00053 -0.00105 -0.00153 -174.38797 -41.24543 -1.81782 47.30692 2.40291 -5.67932 8.03297 3.48219 -0.13462 3.76374 -12.83448 14.92861 44.12004 87.04467 5.6676 3.87231 -2.38189 15.49007 -26.51366 63.57804 -87.75907 3.56865 -0.03979 44.94241 -0.00865 -3.31469 -20.12957 -6.9507 -4.46796 -3.01645 49.06621 4.27386 4.08266 -25.03932 -6.92356 3.29846 2.37649
-0.00014 -0.00119 -0.00168 -174.28832 -41.66837 -1.82638 47.74633 2.30891 -5.32439 7.75174 3.42808 -0.13537 2.16147 -11.72705 4.84551 39.46726 78.28236 1.25732 4.24349 -4.45464 15.26495 -24.4328 59.7594 -90.28227 4.55109 -0.47681 45.29857 -0.01183 -3.83049 -20.00197 -6.90828 -4.4639 -3.01005 49.49466 4.22731 3.54672 -25.01373 -6.93069 3.36367 2.41173
-0.0008 -0.00132 -0.00183 -174.18836 -42.08203 -1.83422 48.18055 2.21444 -4.97803 7.45347 3.3715 -0.13708 0.50669 -10.66334 -4.99458 34.91005 69.8087 -3.02062 4.59441 -6.56413 15.05072 -22.34359 56.00595 -92.75591 5.5169 -0.90435 45.64437 -0.01487 -4.34069 -19.87647 -6.86637 -4.45973 -3.00366 49.91179 4.18436 3.03056 -24.98854 -6.9374 3.42635 2.44557
-0.00148 -0.00146 -0.00199 -174.08785 -42.48438 -1.84113 48.60883 2.11925 -4.64202 7.13332 3.31208 -0.14003 -1.21625 -9.65903 -14.51804 30.47009 61.7023 -7.13034 4.91664 -8.72078 14.85292 -20.24615 52.33304 -95.16714 6.46112 -1.32029 45.97746 -0.01787 -4.84445 -19.75355 -6.82509 -4.45542 -2.99726 50.31507 4.14613 2.54025 -24.96389 -6.94354 3.48568 2.47755
-0.00212 -0.0016 -0.00213 -173.99001 -42.95192 -1.85324 49.0725 2.02777 -4.24605 6.93585 3.26956 -0.13603 -2.55915 -8.33089 -25.80456 25.35667 51.52617 -12.18855 5.39211 -10.61304 14.56996 -18.20188 48.19917 -97.93205 7.52577 -1.80295 46.38356 -0.02151 -5.38646 -19.61583 -6.7802 -4.45186 -2.99083 50.79802 4.08174 1.90623 -24.93627 -6.95279 3.56352 2.51976
-0.00282 -0.00174 -0.0023 -173.88687 -43.28183 -1.85445 49.46066 1.92877 -3.97685 6.48184 3.19105 -0.14657 -4.69526 -7.67434 -33.40881 21.66358 45.68846 -15.25822 5.55194 -13.05791 14.46064 -16.04226 45.03658 -99.95411 8.33868 -2.14483 46.63571 -0.02353 -5.84695 -19.5093 -6.74294 -4.44679 -2.98451 51.11292 4.07187 1.57212 -24.91481 -6.95562 3.60279 2.54067
-0.00369 -0.00192 -0.00254 -173.76651 -43.23124 -1.82503 49.64679 1.80654 -4.05663 5.29797 3.01537 -0.19837 -9.10012 -8.97567 -30.49737 21.90966 52.10758 -12.71334 4.77288 -17.0761 14.88103 -13.58615 44.57521 -99.89865 8.43695 -2.09811 46.46058 -0.02325 -6.08875 -19.48942 -6.72652 -4.43692 -2.97814 50.96202 4.21837 2.09554 -24.91122 -6.93965 3.53119 2.50023
-0.0046 -0.0021 -0.00282 -173.64147 -43.04308 -1.78481 49.7562 1.67733 -4.26343 3.86171 2.80327 -0.26448 -14.28237 -10.93052 -23.96173 23.57365 62.81748 -8.20103 3.68967 -21.63629 15.4651 -11.00988 45.08262 -99.11012 8.28818 -1.91138 46.13196 -0.021 -6.24791 -19.50067 -6.71778 -4.42562 -2.97194 50.64344 4.41824 2.91313 -24.91363 -6.91751 3.42187 2.43898
-0.00548 -0.00227 -0.0031 -173.52011 -42.91954 -1.74998 49.89724 1.55295 -4.41148 2.5573 2.60676 -0.32315 -19.05151 -12.51071 -19.35687 24.56224 71.33477 -4.69193 2.794 -25.9144 15.94055 -8.47613 45.12298 -98.67539 8.26634 -1.78905 45.87649 -0.01823 -6.44142 -19.49698 -6.70562 -4.41545 -2.96593 50.40443 4.58939 3.57426 -24.91265 -6.89894 3.33301 2.38908
-0.0064 -0.00247 -0.00334 -173.39155 -42.78635 -1.71299 50.05149 1.42126 -4.56441 1.17823 2.41415 -0.38587 -24.0835 -14.4183 -13.55889 25.68691 80.887 -0.71777 1.6923 -30.3545 16.5642 -5.99541 45.27763 -98.12888 8.17664 -1.65937 45.60555 -0.02129 -6.64768 -19.49671 -6.69322 -4.40344 -2.95886 50.15012 4.77995 4.33445 -24.91447 -6.87699 3.22973 2.33093
-0.00724 -0.00262 -0.00365 -173.2777 -42.6413 -1.67805 50.16039 1.3035 -4.73693 -0.10298 2.20489 -0.44347 -28.74131 -15.80111 -9.37183 26.8614 89.29824 2.75346 0.94413 -34.57322 16.91379 -3.37298 45.42477 -97.6704 8.17656 -1.51658 45.33147 -0.01193 -6.80856 -19.49668 -6.6831 -4.39472 -2.95392 49.88886 4.94216 4.95511 -24.91189 -6.86076 3.14794 2.28527
